<svg xmlns="http://www.w3.org/2000/svg" data-name="Слой_1" viewBox="0 0 24 24" fill-opacity="0.5"><path d="M12 0C5.33 0 0 5.33 0 12v5.33c0 .8.53 1.33 1.33 1.33v1.33c0 2.27 1.73 4 4 4h1.33c.8 0 1.33-.53 1.33-1.33v-9.33c0-.8-.53-1.33-1.33-1.33H5.33c-1.07 0-2 .4-2.67 1.07V12C2.67 6.8 6.8 2.67 12 2.67S21.33 6.8 21.33 12v1.07c-.67-.67-1.6-1.07-2.67-1.07h-1.33c-.8 0-1.33.53-1.33 1.33v9.33c0 .8.53 1.33 1.33 1.33h1.33c2.27 0 4-1.73 4-4v-1.33c.8 0 1.33-.53 1.33-1.33V12C24 5.33 18.67 0 12 0ZM4 16c0-.8.53-1.33 1.33-1.33v6.67c-.8 0-1.33-.53-1.33-1.33v-4Zm16 4c0 .8-.53 1.33-1.33 1.33v-6.67c.8 0 1.33.53 1.33 1.33v4Z"/></svg>